<?xml version="1.0" encoding="utf-8"?>
<!-- Generator: Adobe Illustrator 16.0.0, SVG Export Plug-In . SVG Version: 6.00 Build 0)  -->
<!DOCTYPE svg PUBLIC "-//W3C//DTD SVG 1.1//EN" "http://www.w3.org/Graphics/SVG/1.1/DTD/svg11.dtd">
<svg version="1.1" id="Layer_1" xmlns="http://www.w3.org/2000/svg" xmlns:xlink="http://www.w3.org/1999/xlink" x="0px" y="0px"
	 width="25px" height="25px" viewBox="0 0 25 25" enable-background="new 0 0 25 25" xml:space="preserve">
<g>
	<g id="_x35_QG05R_1_">
		<g>
			<path fill="#BFBFBF" d="M6.451,11.817c0-0.215,0-0.43,0-0.646c0.006-0.025,0.015-0.051,0.019-0.076
				c0.041-0.265,0.063-0.534,0.126-0.794C6.901,9.024,7.584,7.988,8.65,7.223c1.177-0.845,2.495-1.15,3.928-0.932
				c0.939,0.144,1.783,0.52,2.508,1.132c0.385,0.324,0.729,0.695,1.09,1.045c0.004,0.004,0.004,0.011,0.006,0.021
				c-0.01,0.006-0.021,0.014-0.033,0.019c-1.371,0.476-2.744,0.955-4.118,1.427c-0.421,0.145-0.857,0.227-1.305,0.204
				c-0.271-0.014-0.542-0.043-0.813-0.066c-0.254-0.022-0.504-0.005-0.745,0.079c-0.663,0.231-1.037,0.91-0.91,1.604
				c0.115,0.628,0.335,1.195,0.845,1.611c0.185,0.15,0.379,0.289,0.566,0.438c0.181,0.144,0.388,0.228,0.611,0.266
				c0.273,0.052,0.548,0.104,0.825,0.121c0.563,0.033,1.127,0.054,1.691,0.064c1.277,0.023,2.556,0.033,3.828-0.062
				c0.383-0.028,0.767-0.092,1.146-0.161c0.272-0.05,0.524-0.173,0.75-0.345c0.012,0.041,0.021,0.073,0.03,0.105
				c0,0.188,0,0.377,0,0.564c-0.014,0.088-0.026,0.178-0.036,0.266c-0.093,0.723-0.334,1.391-0.709,2.014
				c-0.035,0.057-0.076,0.088-0.144,0.096c-0.274,0.033-0.552,0.078-0.828,0.103c-0.494,0.043-0.987,0.092-1.483,0.106
				c-0.613,0.021-1.229,0.029-1.844,0.007c-0.693-0.029-1.385-0.103-2.077-0.156c-0.147-0.013-0.295-0.021-0.439-0.049
				c-0.289-0.056-0.575-0.127-0.863-0.188c-0.682-0.143-1.358-0.307-2.016-0.537c-0.067-0.021-0.104-0.059-0.133-0.121
				c-0.315-0.662-0.628-1.323-0.951-1.983c-0.255-0.521-0.438-1.063-0.517-1.64C6.489,12.121,6.471,11.969,6.451,11.817z"/>
			<path fill="#BFBFBF" d="M12.646,13.455c-0.375-0.01-0.735-0.008-1.093-0.035c-0.374-0.027-0.746-0.08-1.117-0.135
				c-0.095-0.014-0.195-0.059-0.272-0.116c-0.236-0.178-0.471-0.357-0.688-0.555c-0.249-0.227-0.342-0.54-0.4-0.859
				c-0.024-0.133-0.05-0.276-0.027-0.406c0.05-0.287,0.288-0.479,0.578-0.476c0.254,0.002,0.509,0.027,0.763,0.046
				c0.349,0.026,0.698,0.031,1.044-0.023c0.057-0.009,0.096-0.012,0.126,0.057c0.354,0.817,0.711,1.632,1.068,2.447
				C12.634,13.412,12.637,13.426,12.646,13.455z"/>
			<path fill="#BFBFBF" d="M16.123,13.445c-0.285-1.285-0.82-2.433-1.466-3.546c0.247-0.089,0.489-0.175,0.731-0.262
				c0.313-0.114,0.631-0.228,0.94-0.346c0.062-0.022,0.092-0.015,0.121,0.042c0.045,0.089,0.143,0.183,0.131,0.261
				c-0.013,0.077-0.133,0.137-0.205,0.205c-0.037,0.034-0.074,0.068-0.11,0.103c-0.111,0.108-0.144,0.228-0.093,0.383
				c0.127,0.398,0.238,0.801,0.359,1.201c0.02,0.064,0.049,0.126,0.079,0.184c0.043,0.075,0.097,0.132,0.197,0.133
				c0.049,0,0.101,0.031,0.15,0.051c0.311,0.124,0.598,0.284,0.865,0.484c0.08,0.061,0.143,0.128,0.176,0.225
				c0.023,0.07,0.055,0.136,0.082,0.205c0.055,0.142,0.033,0.226-0.092,0.314c-0.174,0.122-0.373,0.184-0.58,0.211
				C16.984,13.35,16.555,13.396,16.123,13.445z"/>
			<path fill="#BFBFBF" d="M13.65,10.25c0.152-0.053,0.306-0.104,0.455-0.16c0.062-0.024,0.076,0.021,0.096,0.058
				c0.252,0.488,0.518,0.97,0.749,1.468c0.272,0.583,0.489,1.188,0.64,1.843c-0.178,0-0.348,0.002-0.516-0.002
				c-0.016,0-0.041-0.033-0.047-0.055c-0.297-1.108-0.779-2.136-1.364-3.12C13.658,10.274,13.656,10.264,13.65,10.25z"/>
		</g>
	</g>
	<path fill="#BFBFBF" d="M12.5,2C18.29,2,23,6.71,23,12.5S18.29,23,12.5,23S2,18.29,2,12.5S6.711,2,12.5,2 M12.5,0
		C5.597,0,0,5.597,0,12.5C0,19.402,5.597,25,12.5,25C19.404,25,25,19.402,25,12.5C25,5.597,19.404,0,12.5,0L12.5,0z"/>
</g>
</svg>
