<?xml version="1.0" encoding="utf-8"?>
<!-- Generator: Adobe Illustrator 16.0.0, SVG Export Plug-In . SVG Version: 6.00 Build 0)  -->
<!DOCTYPE svg PUBLIC "-//W3C//DTD SVG 1.1//EN" "http://www.w3.org/Graphics/SVG/1.1/DTD/svg11.dtd">
<svg version="1.1" id="Layer_1" xmlns="http://www.w3.org/2000/svg" xmlns:xlink="http://www.w3.org/1999/xlink" x="0px" y="0px"
	 width="56px" height="42px" viewBox="0.393 0 54.546 40.875" enable-background="new 0.393 0 54.546 40.875"
	 xml:space="preserve">
<g>
	<polygon fill="#FFFFFF" points="34.875,13.625 21.25,13.625 24.541,0 38.167,0 	"/>
	<polygon fill="#FFFFFF" points="28.291,40.875 14.666,40.875 17.958,27.25 31.583,27.25 	"/>
	<polygon fill="#FFFFFF" points="54.939,13.625 48.5,13.625 51.792,0 54.939,0 	"/>
	<polygon fill="#FFFFFF" points="54.939,40.875 41.917,40.875 45.208,27.25 54.939,27.25 	"/>
	<polygon fill="#FFFFFF" points="17.958,27.25 4.333,27.25 7.625,13.625 21.25,13.625 	"/>
	<polygon fill="#FFFFFF" points="45.208,27.25 31.583,27.25 34.875,13.625 48.5,13.625 	"/>
	<polygon fill="#FFFFFF" points="7.625,13.625 0.393,13.625 0.393,0 10.916,0 	"/>
	<polygon fill="#FFFFFF" points="1.041,40.875 0.393,40.875 0.393,27.25 4.333,27.25 	"/>
</g>
</svg>
