<?xml version="1.0" encoding="utf-8"?>
<!-- Generator: Adobe Illustrator 16.0.0, SVG Export Plug-In . SVG Version: 6.00 Build 0)  -->
<!DOCTYPE svg PUBLIC "-//W3C//DTD SVG 1.1//EN" "http://www.w3.org/Graphics/SVG/1.1/DTD/svg11.dtd">
<svg version="1.1" id="Layer_1_copy" xmlns="http://www.w3.org/2000/svg" xmlns:xlink="http://www.w3.org/1999/xlink" x="0px"
	 y="0px" width="154px" height="32px" viewBox="0 0 154 32" enable-background="new 0 0 154 32" xml:space="preserve">
<g>
	<path fill="#E61E26" d="M2.785,30.945c-0.947,0-1.846,0-2.767,0c0-5.064,0-10.123,0-15.21c0.058-0.006,0.128-0.018,0.199-0.018
		c0.835-0.002,1.67,0.004,2.504-0.006c0.153-0.001,0.238,0.061,0.324,0.178c1.556,2.148,3.114,4.292,4.674,6.439
		c0.054,0.07,0.108,0.141,0.183,0.232c0.08-0.107,0.145-0.191,0.205-0.277c1.531-2.115,3.062-4.229,4.588-6.349
		c0.113-0.156,0.227-0.227,0.426-0.225c0.867,0.012,1.734,0.006,2.627,0.006c0,5.078,0,10.144,0,15.224c-0.906,0-1.803,0-2.736,0
		c0-3.676,0-7.348,0-11.02c-0.021-0.006-0.042-0.014-0.064-0.02c-0.051,0.068-0.104,0.137-0.154,0.205
		c-1.301,1.799-2.604,3.596-3.898,5.396c-0.113,0.156-0.228,0.232-0.429,0.223c-0.366-0.018-0.733-0.018-1.101,0
		c-0.211,0.01-0.344-0.055-0.474-0.232c-1.292-1.795-2.595-3.578-3.896-5.365c-0.053-0.072-0.108-0.141-0.209-0.273
		C2.785,23.586,2.785,27.248,2.785,30.945z"/>
	<path fill="#E61E26" d="M26.264,15.428c2.477,0.039,4.477,0.705,6.066,2.365c1.17,1.223,1.805,2.705,2.01,4.375
		c0.201,1.639,0.033,3.236-0.678,4.74c-1.104,2.336-2.977,3.691-5.49,4.172c-1.674,0.318-3.33,0.203-4.914-0.447
		c-2.525-1.033-4.01-2.943-4.523-5.598c-0.359-1.857-0.189-3.682,0.648-5.395c1.127-2.307,3.02-3.607,5.516-4.062
		C25.422,15.484,25.957,15.459,26.264,15.428z M31.348,23.342c0.004-0.912-0.141-1.797-0.514-2.631
		c-0.766-1.709-2.061-2.74-3.947-2.879c-1.932-0.145-3.492,0.604-4.443,2.307c-1.162,2.088-1.18,4.273-0.02,6.359
		c1.764,3.168,6.279,3.174,8.111,0.053C31.117,25.562,31.344,24.48,31.348,23.342z"/>
	<path fill="#E61E26" d="M56.045,15.43c2.236,0.032,4.043,0.561,5.564,1.876c1.49,1.289,2.285,2.949,2.521,4.883
		c0.188,1.533,0.049,3.037-0.568,4.465c-1.07,2.477-2.979,3.924-5.602,4.424c-1.85,0.354-3.664,0.184-5.373-0.646
		c-2.373-1.148-3.697-3.094-4.113-5.666c-0.264-1.621-0.129-3.219,0.52-4.736c1.078-2.52,3.023-3.958,5.689-4.45
		C55.215,15.481,55.76,15.459,56.045,15.43z M51.406,23.324c-0.006,0.859,0.125,1.697,0.459,2.492
		c0.744,1.77,2.039,2.857,3.979,3.018C57.9,29,59.5,28.168,60.434,26.32c1.016-2.01,1.004-4.092-0.057-6.082
		c-1.578-2.957-5.688-3.295-7.768-0.678C51.738,20.66,51.416,21.945,51.406,23.324z"/>
	<path fill="#E61E26" d="M67.025,15.715c0.098,0,0.172,0,0.248,0c2.328,0,4.656,0,6.982,0.002c1.217,0,2.35,0.293,3.336,1.025
		c1.266,0.938,1.855,2.229,1.842,3.783c-0.016,1.664-0.664,3.018-2.135,3.885c-0.408,0.242-0.877,0.387-1.34,0.586
		c1.354,1.955,2.723,3.932,4.111,5.941c-0.113,0.01-0.186,0.021-0.254,0.021c-0.91,0-1.82-0.006-2.73,0.004
		c-0.172,0.002-0.27-0.061-0.363-0.199c-1.121-1.678-2.244-3.354-3.373-5.025c-0.541-0.805-1.094-1.598-1.639-2.395
		c-0.051-0.074-0.096-0.15-0.162-0.256c0.119-0.006,0.205-0.012,0.293-0.014c0.785-0.014,1.57,0.02,2.352-0.045
		c1.34-0.107,2.246-1.092,2.283-2.404c0.035-1.33-0.832-2.357-2.176-2.564c-0.172-0.025-0.348-0.043-0.521-0.043
		c-1.209-0.004-2.42-0.004-3.629-0.002c-0.074,0-0.148,0.006-0.248,0.012c0,4.303,0,8.596,0,12.908c-0.971,0-1.916,0-2.879,0
		C67.025,25.869,67.025,20.809,67.025,15.715z"/>
	<path fill="#E61E26" d="M117.973,15.415c3.959,0.021,6.982,2.701,7.465,6.623c0.229,1.867,0.027,3.668-0.861,5.344
		c-1.146,2.162-2.971,3.391-5.379,3.762c-1.352,0.207-2.682,0.096-3.967-0.373c-1.791-0.652-3.146-1.832-3.951-3.555
		c-1.219-2.605-1.229-5.26,0.049-7.842c1.115-2.256,3.018-3.497,5.498-3.855C117.203,15.465,117.588,15.449,117.973,15.415z
		 M118.402,16.951c-2.523,0.002-4.271,1.027-5.248,2.871c-0.9,1.693-1.043,3.5-0.629,5.346c0.617,2.746,2.627,4.432,5.105,4.545
		c2.111,0.096,3.834-0.688,4.939-2.504c1.398-2.305,1.455-4.756,0.318-7.176C121.93,17.99,120.213,17.006,118.402,16.951z"/>
	<path fill="#E61E26" d="M130.732,24.891c0,2.035,0,4.035,0,6.053c-0.604,0-1.182,0-1.775,0c0-5.074,0-10.137,0-15.212
		c0.064-0.006,0.119-0.014,0.176-0.014c1.938,0,3.873-0.015,5.809,0.006c1.232,0.015,2.352,0.389,3.275,1.23
		c1.066,0.969,1.492,2.207,1.406,3.623c-0.092,1.486-0.736,2.666-2.031,3.451c-0.467,0.283-0.977,0.461-1.516,0.555
		c-0.072,0.012-0.145,0.033-0.26,0.061c1.471,2.1,2.926,4.178,4.412,6.299c-0.127,0.008-0.213,0.02-0.297,0.02
		c-0.492,0-0.984-0.008-1.479,0.004c-0.186,0.004-0.299-0.053-0.408-0.211c-1.293-1.885-2.596-3.762-3.889-5.646
		c-0.115-0.166-0.234-0.223-0.43-0.221c-0.895,0.01-1.787,0.004-2.68,0.004C130.957,24.891,130.867,24.891,130.732,24.891z
		 M130.75,23.424c0.078,0.004,0.146,0.01,0.209,0.01c1.186,0,2.369,0.008,3.555-0.006c0.297-0.002,0.6-0.039,0.891-0.102
		c1.348-0.295,2.281-1.34,2.396-2.668c0.129-1.43-0.549-2.66-1.814-3.17c-0.461-0.186-0.982-0.287-1.479-0.307
		c-1.191-0.043-2.387-0.014-3.578-0.014c-0.057,0-0.111,0.008-0.18,0.014C130.75,19.262,130.75,21.328,130.75,23.424z"/>
	<path fill="#E61E26" d="M42.902,30.945c-1.018,0-1.992,0-2.998,0c0-4.303,0-8.596,0-12.92c-1.625,0-3.221,0-4.832,0
		c0-0.781,0-1.527,0-2.291c4.203,0,8.395,0,12.604,0c0,0.752,0,1.5,0,2.271c-1.586,0-3.166,0-4.775,0
		C42.902,22.326,42.902,26.619,42.902,30.945z"/>
	<path fill="#E61E26" d="M97.168,15.731c0.062-0.006,0.105-0.014,0.146-0.014c1.977,0.002,3.955-0.021,5.932,0.012
		c2.029,0.033,3.787,1.248,4.42,3.042c0.977,2.766-0.41,5.883-3.824,6.406c-0.359,0.057-0.73,0.078-1.096,0.08
		c-1.135,0.01-2.27,0.004-3.404,0.006c-0.441,0-0.393-0.051-0.395,0.379c0,1.662,0,3.322,0,4.982c0,0.098,0,0.197,0,0.312
		c-0.605,0-1.184,0-1.779,0C97.168,25.871,97.168,20.811,97.168,15.731z M98.947,23.793c0.123,0,0.213,0,0.303,0
		c1.076,0,2.15,0.004,3.229-0.002c0.291-0.002,0.586-0.012,0.871-0.062c2.836-0.494,3.42-3.432,2.219-5.135
		c-0.707-1-1.73-1.4-2.918-1.422c-1.133-0.018-2.268,0.004-3.402-0.008c-0.24-0.004-0.307,0.062-0.305,0.305
		c0.01,2.01,0.004,4.02,0.004,6.029C98.947,23.588,98.947,23.676,98.947,23.793z"/>
	<path fill="#E61E26" d="M82.91,30.023c0.15-0.48,0.295-0.941,0.443-1.414c0.508,0.174,0.996,0.354,1.494,0.512
		c0.986,0.311,1.99,0.551,3.031,0.598c0.93,0.043,1.832-0.072,2.664-0.523c1.078-0.584,1.561-1.68,1.244-2.805
		c-0.182-0.641-0.598-1.111-1.174-1.395c-0.648-0.318-1.328-0.574-2.01-0.814c-0.889-0.309-1.799-0.555-2.686-0.871
		c-0.428-0.15-0.834-0.379-1.227-0.611c-2.188-1.311-2.25-4.58-0.271-6.084c0.908-0.687,1.939-1.03,3.055-1.134
		c1.771-0.164,4.061,0.242,5.693,0.988c-0.146,0.464-0.293,0.935-0.434,1.39c-0.68-0.211-1.324-0.439-1.984-0.605
		c-1.23-0.316-2.482-0.459-3.732-0.125c-0.426,0.113-0.857,0.301-1.219,0.553c-1.35,0.938-1.334,2.807,0.047,3.693
		c0.545,0.352,1.176,0.588,1.793,0.803c1.006,0.352,2.043,0.609,3.045,0.973c0.541,0.197,1.066,0.48,1.539,0.812
		c1.182,0.834,1.604,2.041,1.473,3.436c-0.176,1.873-1.365,2.91-3.043,3.484c-1.125,0.385-2.291,0.422-3.463,0.293
		c-1.426-0.158-2.793-0.545-4.121-1.078C83.025,30.078,82.982,30.057,82.91,30.023z"/>
	<path fill="#E61E26" d="M148.777,30.945c-0.635,0-1.225,0-1.842,0c0-4.582,0-9.156,0-13.768c-1.766,0-3.502,0-5.256,0
		c0-0.494,0-0.958,0-1.441c4.102,0,8.201,0,12.32,0c0,0.461,0,0.931,0,1.425c-1.73,0-3.463,0-5.225,0
		C148.777,21.76,148.777,26.336,148.777,30.945z"/>
	<path fill="#007360" d="M37.086,8.885c-0.484,0-0.939,0-1.418,0c-0.006-0.097-0.014-0.186-0.014-0.273
		c0-2.479,0.002-4.956-0.004-7.434c-0.002-0.229,0.062-0.302,0.293-0.298c1.16,0.017,2.32-0.002,3.477,0.039
		c0.373,0.013,0.76,0.125,1.105,0.272c0.717,0.304,1.086,0.904,1.162,1.656c0.139,1.379-0.537,2.291-1.885,2.605
		c-0.078,0.02-0.156,0.042-0.273,0.072c0.768,1.123,1.521,2.227,2.305,3.373c-0.553,0-1.057,0.008-1.561-0.01
		c-0.072-0.002-0.156-0.108-0.207-0.187c-0.625-0.947-1.25-1.894-1.859-2.849c-0.127-0.2-0.264-0.277-0.502-0.271
		c-0.617,0.019-0.617,0.005-0.617,0.615C37.086,7.083,37.086,7.967,37.086,8.885z M37.088,2.001c0,0.818-0.002,1.567,0.004,2.315
		c0,0.047,0.084,0.135,0.129,0.135c0.707-0.007,1.418,0.018,2.119-0.053c0.574-0.057,0.926-0.567,0.928-1.184
		c0.004-0.623-0.289-1.048-0.906-1.119C38.621,2.012,37.871,2.03,37.088,2.001z"/>
	<path fill="#007360" d="M48.865,2.712c-0.42,0.122-0.811,0.236-1.221,0.355c-0.207-0.619-0.639-0.974-1.254-1.105
		c-0.424-0.091-0.846-0.096-1.256,0.058c-0.418,0.156-0.676,0.494-0.686,0.897c-0.01,0.431,0.244,0.704,0.609,0.827
		c0.559,0.188,1.137,0.316,1.707,0.469c0.258,0.069,0.52,0.122,0.771,0.206c0.947,0.313,1.506,0.962,1.607,1.962
		c0.09,0.877-0.455,1.805-1.283,2.237c-0.545,0.284-1.129,0.39-1.738,0.399c-0.709,0.012-1.396-0.086-2.033-0.422
		c-0.693-0.367-1.166-0.929-1.434-1.666c-0.014-0.039-0.025-0.08-0.035-0.119c-0.002-0.016,0.004-0.032,0.01-0.084
		c0.418-0.08,0.848-0.162,1.285-0.244c0.045,0.097,0.082,0.18,0.123,0.26c0.363,0.708,0.949,1.09,1.736,1.121
		c0.359,0.014,0.734-0.021,1.084-0.113c0.422-0.109,0.713-0.4,0.766-0.859c0.055-0.483-0.178-0.847-0.596-1.032
		c-0.412-0.185-0.867-0.279-1.303-0.415c-0.492-0.153-1.004-0.26-1.469-0.473c-0.861-0.396-1.312-1.09-1.236-2.062
		C43.094,2,43.576,1.354,44.416,1.032c1.02-0.391,2.059-0.377,3.074,0.043c0.662,0.273,1.084,0.786,1.332,1.449
		C48.842,2.574,48.848,2.631,48.865,2.712z"/>
	<path fill="#007360" d="M20.26,2.707c-0.428,0.124-0.83,0.24-1.227,0.354c-0.508-0.992-1.451-1.395-2.455-1.071
		c-0.541,0.174-0.85,0.657-0.729,1.146c0.082,0.334,0.324,0.53,0.625,0.629c0.475,0.153,0.961,0.269,1.441,0.396
		c0.322,0.086,0.648,0.149,0.965,0.252c0.941,0.299,1.568,1.036,1.627,1.89c0.068,1.002-0.418,1.924-1.32,2.332
		c-1.281,0.578-2.58,0.551-3.83-0.104c-0.709-0.372-1.146-0.996-1.396-1.796c0.444-0.085,0.872-0.167,1.312-0.251
		c0.029,0.05,0.059,0.089,0.078,0.132c0.369,0.823,1.012,1.243,1.904,1.252c0.328,0.003,0.67-0.032,0.984-0.121
		c0.443-0.125,0.734-0.438,0.764-0.918c0.027-0.446-0.197-0.793-0.588-0.964c-0.422-0.186-0.883-0.284-1.326-0.426
		c-0.514-0.163-1.049-0.281-1.533-0.51c-0.902-0.426-1.297-1.246-1.137-2.226c0.135-0.817,0.609-1.388,1.375-1.676
		c1.004-0.38,2.025-0.373,3.027,0.028C19.57,1.354,20.01,1.932,20.26,2.707z"/>
	<path fill="#007360" d="M51.91,4.538c0.129-0.117,0.211-0.177,0.277-0.252c0.928-1.062,1.854-2.124,2.775-3.191
		c0.131-0.154,0.27-0.22,0.473-0.213c0.406,0.014,0.814,0.004,1.307,0.004c-1.145,1.297-2.242,2.541-3.363,3.81
		c1.236,1.391,2.463,2.772,3.717,4.182c-0.09,0.011-0.15,0.023-0.211,0.023c-0.357,0.002-0.719-0.024-1.074,0.008
		c-0.377,0.035-0.625-0.101-0.867-0.39c-0.902-1.073-1.832-2.123-2.752-3.179c-0.068-0.077-0.15-0.141-0.275-0.259
		c-0.018,0.172-0.039,0.273-0.039,0.375c-0.002,1.051-0.006,2.104,0.004,3.154c0.002,0.225-0.057,0.308-0.293,0.296
		c-0.373-0.021-0.748-0.005-1.139-0.005c-0.006-0.107-0.014-0.188-0.014-0.27c0-2.486,0.004-4.973-0.008-7.457
		c0-0.238,0.074-0.306,0.299-0.293c0.266,0.016,0.533,0.004,0.801,0.004c0.348,0,0.348,0.002,0.348,0.338
		c0,0.977,0,1.953,0.002,2.929C51.877,4.254,51.895,4.358,51.91,4.538z"/>
	<path fill="#007360" d="M6.678,8.9c-0.607,0-1.156,0.007-1.707-0.009c-0.088-0.002-0.191-0.086-0.258-0.16
		C3.729,7.606,2.75,6.479,1.769,5.352C1.697,5.27,1.611,5.201,1.533,5.125c-0.024,0.011-0.051,0.021-0.074,0.03
		c0,1.234,0,2.47,0,3.725c-0.506,0-0.967,0-1.442,0C0.013,8.788,0.006,8.707,0.006,8.625c0-2.486,0.002-4.974-0.006-7.461
		C0,0.946,0.056,0.869,0.277,0.88c0.299,0.017,0.601,0.015,0.9,0c0.214-0.01,0.268,0.075,0.266,0.276
		c-0.008,1.01-0.004,2.02,0,3.029c0,0.092,0.043,0.183,0.066,0.272c0.078-0.052,0.172-0.091,0.232-0.159
		C2.682,3.225,3.619,2.15,4.553,1.07c0.113-0.132,0.23-0.192,0.406-0.188c0.424,0.012,0.849,0.004,1.337,0.004
		C6.199,1.002,6.141,1.077,6.078,1.149C5.105,2.25,4.137,3.352,3.154,4.446C2.99,4.628,2.971,4.738,3.146,4.932
		C4.275,6.184,5.391,7.448,6.51,8.707C6.555,8.755,6.597,8.805,6.678,8.9z"/>
	<path fill="#007360" d="M34.32,7.77c0,0.381,0,0.735,0,1.11c-1.797,0-3.588,0-5.42,0c0-0.073,0-0.153,0-0.231
		c0-2.496,0.004-4.991-0.004-7.486c-0.002-0.223,0.062-0.282,0.279-0.281c1.609,0.008,3.221,0.008,4.832,0
		c0.223-0.001,0.291,0.067,0.275,0.286c-0.02,0.272-0.004,0.547-0.004,0.843c-0.121,0.006-0.217,0.016-0.316,0.016
		c-1.117,0.001-2.234,0.005-3.354-0.004c-0.205-0.002-0.277,0.057-0.273,0.267c0.014,0.542,0.016,1.085,0,1.627
		c-0.008,0.239,0.084,0.295,0.307,0.292c0.834-0.01,1.668-0.004,2.504-0.004c0.098,0,0.197,0,0.314,0c0,0.368,0,0.712,0,1.082
		c-1.029,0-2.053,0-3.098,0c-0.01,0.105-0.021,0.186-0.021,0.268c-0.002,0.65,0.006,1.301-0.006,1.952
		c-0.004,0.207,0.062,0.271,0.271,0.269c1.143-0.008,2.287-0.004,3.43-0.004C34.125,7.77,34.215,7.77,34.32,7.77z"/>
	<path fill="#007360" d="M23.248,8.899c-0.441,0-0.865,0.004-1.289-0.006c-0.047-0.002-0.105-0.078-0.133-0.133
		c-0.021-0.049-0.006-0.115-0.006-0.174c0-2.453,0-4.906,0-7.359c0-0.34,0-0.344,0.344-0.342c1.051,0.006,2.104,0,3.154,0.027
		c1.057,0.027,1.93,0.645,2.225,1.535c0.436,1.324-0.17,3.172-2.275,3.29c-0.574,0.032-1.152,0.021-1.727,0.009
		c-0.215-0.004-0.289,0.053-0.285,0.279c0.014,0.9,0.006,1.803,0.006,2.703C23.26,8.77,23.254,8.811,23.248,8.899z M23.277,2.071
		c0,0.832,0,1.675,0,2.533c0.615,0,1.215,0.039,1.809-0.01c0.693-0.059,1.135-0.592,1.152-1.285
		c0.014-0.637-0.359-1.143-1.041-1.224C24.574,2.012,23.936,2.071,23.277,2.071z"/>
	<path fill="#007360" d="M13.73,8.899c-0.47,0-0.927,0.007-1.384-0.01c-0.062-0.002-0.147-0.112-0.174-0.189
		c-0.177-0.545-0.349-1.094-0.507-1.645c-0.053-0.184-0.141-0.252-0.334-0.25c-0.717,0.01-1.434,0.01-2.15,0
		C8.984,6.803,8.888,6.86,8.832,7.061C8.684,7.606,8.5,8.143,8.348,8.688C8.301,8.856,8.224,8.911,8.053,8.904
		C7.729,8.889,7.404,8.9,7.054,8.9c0.019-0.085,0.024-0.147,0.043-0.206c0.802-2.521,1.604-5.041,2.401-7.562
		c0.058-0.18,0.131-0.258,0.326-0.251C10.217,0.895,10.609,0.887,11,0.883c0.133,0,0.211,0.035,0.256,0.176
		c0.82,2.584,1.648,5.166,2.474,7.75C13.734,8.824,13.73,8.842,13.73,8.899z M9.201,5.699c0.715,0,1.383,0,2.084,0
		c-0.342-1.11-0.672-2.193-1.004-3.276c-0.024,0.004-0.049,0.008-0.072,0.014C9.877,3.512,9.544,4.589,9.201,5.699z"/>
	<path fill="#007360" d="M56.822,0.889c0.549,0,1.039-0.01,1.529,0.008c0.078,0.003,0.172,0.115,0.221,0.199
		c0.539,0.947,1.072,1.9,1.607,2.853c0.043,0.077,0.088,0.153,0.16,0.274c0.07-0.117,0.115-0.191,0.158-0.268
		c0.537-0.95,1.078-1.898,1.607-2.852c0.088-0.157,0.186-0.23,0.371-0.224c0.33,0.015,0.664,0.005,1.043,0.005
		c-0.066,0.127-0.109,0.213-0.156,0.297c-0.775,1.371-1.555,2.74-2.322,4.115c-0.076,0.137-0.119,0.312-0.121,0.469
		c-0.01,0.942-0.004,1.886-0.004,2.828c0,0.09,0,0.18,0,0.303c-0.457,0-0.887,0.008-1.316-0.01
		c-0.047-0.002-0.121-0.158-0.121-0.242c-0.01-0.926,0.004-1.852-0.014-2.776c-0.004-0.206-0.061-0.433-0.16-0.608
		c-0.766-1.367-1.549-2.724-2.326-4.084C56.934,1.098,56.893,1.018,56.822,0.889z"/>
</g>
</svg>
