<?xml version="1.0" encoding="utf-8"?>
<!-- Generator: Adobe Illustrator 16.0.0, SVG Export Plug-In . SVG Version: 6.00 Build 0)  -->
<!DOCTYPE svg PUBLIC "-//W3C//DTD SVG 1.1//EN" "http://www.w3.org/Graphics/SVG/1.1/DTD/svg11.dtd">
<svg version="1.1" id="Layer_1" xmlns="http://www.w3.org/2000/svg" xmlns:xlink="http://www.w3.org/1999/xlink" x="0px" y="0px"
	 width="56px" height="42px" viewBox="-28.227 -21.152 56 41.965" enable-background="new -28.227 -21.152 56 41.965"
	 xml:space="preserve">
<g>
	<polygon fill="#FFCB65" points="7.174,-7.062 -6.813,-7.062 -3.435,-21.062 10.556,-21.062 	"/>
	<polygon fill="#FFCB65" points="0.414,20.938 -13.573,20.938 -10.193,6.938 3.795,6.938 	"/>
	<polygon fill="#FFCB65" points="27.773,-7.062 21.163,-7.062 24.544,-21.062 27.773,-21.062 	"/>
	<polygon fill="#FFCB65" points="27.773,20.938 14.404,20.938 17.784,6.938 27.773,6.938 	"/>
	<polygon fill="#FFCB65" points="-10.193,6.938 -24.182,6.938 -20.802,-7.062 -6.813,-7.062 	"/>
	<polygon fill="#FFCB65" points="17.784,6.938 3.795,6.938 7.174,-7.062 21.163,-7.062 	"/>
	<polygon fill="#FFCB65" points="-20.802,-7.062 -28.227,-7.062 -28.227,-21.062 -17.424,-21.062 	"/>
	<polygon fill="#FFCB65" points="-27.562,20.938 -28.227,20.938 -28.227,6.938 -24.182,6.938 	"/>
</g>
</svg>
