<?xml version="1.0" encoding="utf-8"?>
<!-- Generator: Adobe Illustrator 16.0.0, SVG Export Plug-In . SVG Version: 6.00 Build 0)  -->
<!DOCTYPE svg PUBLIC "-//W3C//DTD SVG 1.1//EN" "http://www.w3.org/Graphics/SVG/1.1/DTD/svg11.dtd">
<svg version="1.1" id="Layer_1" xmlns="http://www.w3.org/2000/svg" xmlns:xlink="http://www.w3.org/1999/xlink" x="0px" y="0px"
	 width="26px" height="26px" viewBox="0 0 26 26" enable-background="new 0 0 26 26" xml:space="preserve">
<g>
	<g>
		<path fill="#FFFFFF" d="M8.974,5.871L8.427,6.119c-0.407,0.028-0.793,0.126-1.175,0.3C7.181,6.452,7.109,6.487,7.038,6.524
			C6.89,6.604,6.74,6.695,6.593,6.798C6.309,6.997,6.026,7.239,5.73,7.539c-0.12,0.122-0.242,0.251-0.37,0.396
			c-0.262,0.296-0.517,0.61-0.752,0.906c-0.057,0.072-0.114,0.144-0.17,0.215c-0.057,0.071-0.113,0.142-0.17,0.214
			c-0.231,0.291-0.48,0.598-0.735,0.886c-0.122,0.137-0.237,0.261-0.352,0.376c-0.274,0.278-0.533,0.501-0.792,0.682
			c-0.13,0.091-0.263,0.173-0.394,0.243c-0.449,0.239-0.904,0.354-1.395,0.356H0.214l3.264,7.194l0.162-0.001
			c0.488,0,0.964-0.104,1.414-0.308c0.072-0.034,0.144-0.068,0.215-0.105c0.148-0.079,0.298-0.172,0.445-0.274
			c0.284-0.199,0.566-0.439,0.862-0.74c0.121-0.122,0.241-0.253,0.369-0.396c0.263-0.296,0.517-0.61,0.752-0.906
			c0.056-0.071,0.112-0.142,0.169-0.214c0.057-0.071,0.114-0.144,0.172-0.216c0.231-0.291,0.479-0.599,0.735-0.886
			c0.123-0.137,0.237-0.261,0.352-0.378c0.274-0.277,0.533-0.501,0.792-0.682c0.13-0.09,0.262-0.171,0.393-0.24
			c0.422-0.225,0.848-0.34,1.304-0.354l3.095,6.822l0.609-0.275L8.974,5.871z M8.516,6.618C8.75,7.134,8.984,7.649,9.218,8.166
			C8.676,8.211,8.196,8.392,7.757,8.662C7.523,8.146,7.289,7.63,7.054,7.113C7.493,6.843,7.974,6.663,8.516,6.618z M7.758,8.664
			c0.234,0.517,0.468,1.033,0.703,1.549c-0.44,0.271-0.838,0.631-1.216,1.037c-0.234-0.517-0.469-1.032-0.703-1.548
			C6.92,9.296,7.319,8.935,7.758,8.664z M5.839,8.15c0.234,0.517,0.468,1.032,0.702,1.549c-0.378,0.406-0.735,0.857-1.093,1.308
			C5.214,10.491,4.98,9.975,4.746,9.458C5.104,9.007,5.461,8.556,5.839,8.15z M5.45,11.009c0.234,0.516,0.468,1.032,0.703,1.549
			c-0.357,0.451-0.715,0.902-1.093,1.308c-0.234-0.517-0.468-1.032-0.703-1.549C4.735,11.911,5.093,11.46,5.45,11.009z
			 M3.653,10.765c0.234,0.517,0.469,1.033,0.703,1.549c-0.378,0.406-0.777,0.767-1.216,1.038c-0.234-0.517-0.469-1.033-0.703-1.549
			C2.877,11.532,3.275,11.171,3.653,10.765z M1.68,13.85c0.542-0.045,1.022-0.226,1.461-0.497c0.234,0.516,0.469,1.033,0.703,1.549
			c-0.439,0.27-0.92,0.45-1.461,0.495C2.149,14.881,1.915,14.366,1.68,13.85z M3.791,18.5c-0.234-0.517-0.469-1.033-0.703-1.55
			c0.542-0.043,1.022-0.224,1.461-0.495c0.234,0.517,0.469,1.032,0.703,1.549C4.812,18.274,4.333,18.455,3.791,18.5z M4.548,16.454
			c-0.235-0.517-0.469-1.033-0.704-1.55c0.44-0.271,0.838-0.632,1.216-1.037c0.234,0.516,0.468,1.032,0.703,1.548
			C5.386,15.822,4.987,16.183,4.548,16.454z M6.467,16.967c-0.234-0.517-0.468-1.033-0.703-1.55
			c0.378-0.404,0.736-0.855,1.093-1.307c0.234,0.517,0.469,1.033,0.703,1.55C7.203,16.109,6.845,16.561,6.467,16.967z M6.856,14.108
			c-0.234-0.516-0.468-1.032-0.703-1.548c0.357-0.452,0.715-0.902,1.093-1.308c0.235,0.517,0.469,1.033,0.703,1.549
			C7.571,13.207,7.214,13.657,6.856,14.108z M8.653,14.353c-0.234-0.516-0.469-1.033-0.703-1.549
			c0.378-0.405,0.776-0.767,1.216-1.038c0.233,0.517,0.468,1.033,0.703,1.549C9.429,13.585,9.03,13.946,8.653,14.353z M9.165,11.764
			c-0.234-0.516-0.468-1.032-0.703-1.549c0.439-0.271,0.919-0.451,1.461-0.497c0.234,0.517,0.468,1.033,0.703,1.55
			C10.084,11.313,9.604,11.494,9.165,11.764z"/>
		<path fill="#FFFFFF" d="M14.709,20.342c-0.08,0-0.158-0.046-0.194-0.125l-3.035-6.688c-0.371,0.03-0.721,0.136-1.068,0.321
			c-0.125,0.065-0.25,0.144-0.373,0.227c-0.245,0.171-0.494,0.387-0.762,0.657c-0.112,0.114-0.224,0.236-0.344,0.37
			c-0.253,0.284-0.499,0.59-0.728,0.877l-0.34,0.428c-0.239,0.3-0.495,0.619-0.76,0.917c-0.13,0.146-0.254,0.278-0.377,0.404
			c-0.302,0.306-0.593,0.557-0.891,0.766c-0.155,0.106-0.312,0.205-0.467,0.287c-0.076,0.04-0.151,0.077-0.227,0.11
			c-0.479,0.218-0.985,0.328-1.502,0.328l-0.161,0.002c0,0-0.001,0-0.001,0c-0.084,0-0.16-0.051-0.194-0.126l-3.265-7.194
			c-0.03-0.067-0.025-0.144,0.015-0.205c0.039-0.062,0.107-0.098,0.18-0.098h0.388c0.455-0.002,0.878-0.11,1.293-0.331
			c0.125-0.065,0.249-0.143,0.372-0.229c0.248-0.173,0.497-0.388,0.762-0.657c0.113-0.113,0.225-0.234,0.345-0.368
			C3.625,9.73,3.872,9.425,4.101,9.138l0.34-0.429c0.238-0.299,0.495-0.617,0.76-0.916c0.13-0.147,0.254-0.28,0.377-0.404
			c0.306-0.311,0.598-0.561,0.893-0.766c0.153-0.107,0.311-0.204,0.466-0.287c0.077-0.04,0.152-0.077,0.227-0.111
			c0.393-0.179,0.789-0.282,1.21-0.316l0.512-0.232c0.108-0.048,0.235,0,0.283,0.106l6.345,13.981
			c0.023,0.052,0.025,0.112,0.006,0.164c-0.021,0.054-0.062,0.097-0.112,0.12l-0.609,0.276
			C14.769,20.337,14.738,20.342,14.709,20.342z M11.614,13.092c0.083,0,0.16,0.049,0.195,0.125l3.007,6.628l0.22-0.101L8.867,6.154
			L8.516,6.313C8.493,6.324,8.467,6.331,8.442,6.333C8.058,6.359,7.698,6.451,7.341,6.614C7.272,6.645,7.204,6.679,7.136,6.714
			c-0.139,0.074-0.281,0.161-0.42,0.259C6.442,7.164,6.17,7.398,5.883,7.689c-0.118,0.12-0.236,0.247-0.361,0.388
			C5.261,8.37,5.01,8.682,4.776,8.975l-0.34,0.429c-0.234,0.294-0.486,0.604-0.743,0.895c-0.125,0.141-0.242,0.267-0.36,0.385
			c-0.283,0.288-0.551,0.519-0.821,0.707c-0.138,0.096-0.278,0.183-0.417,0.256c-0.478,0.254-0.966,0.379-1.493,0.38H0.546
			l3.093,6.766c0.458,0,0.904-0.098,1.327-0.29c0.067-0.029,0.135-0.063,0.204-0.1c0.14-0.074,0.282-0.162,0.422-0.26
			c0.276-0.192,0.548-0.428,0.832-0.715c0.119-0.121,0.237-0.246,0.362-0.388c0.26-0.293,0.512-0.605,0.746-0.898l0.34-0.43
			c0.234-0.292,0.485-0.604,0.743-0.895c0.125-0.14,0.242-0.267,0.359-0.386c0.287-0.289,0.556-0.521,0.822-0.707
			c0.138-0.096,0.278-0.182,0.417-0.255c0.449-0.239,0.906-0.363,1.396-0.379C11.609,13.092,11.612,13.092,11.614,13.092z
			 M3.791,18.714c-0.083,0-0.16-0.049-0.195-0.125l-0.703-1.55c-0.029-0.063-0.025-0.138,0.011-0.197
			c0.035-0.061,0.097-0.099,0.167-0.104c0.417-0.035,0.813-0.156,1.204-0.37l-0.528-1.163c-0.435,0.234-0.877,0.366-1.345,0.406
			c-0.096,0.015-0.176-0.042-0.213-0.125l-0.703-1.548c-0.029-0.063-0.025-0.136,0.01-0.197c0.036-0.06,0.098-0.099,0.167-0.104
			c0.418-0.035,0.814-0.157,1.205-0.371l-0.624-1.375c-0.044-0.098-0.009-0.214,0.083-0.271c0.378-0.234,0.762-0.561,1.171-1.001
			c0.049-0.052,0.12-0.079,0.191-0.065c0.071,0.011,0.131,0.057,0.161,0.123l0.569,1.254c0.271-0.308,0.53-0.632,0.783-0.952
			L4.551,9.546C4.518,9.474,4.528,9.388,4.578,9.325c0.354-0.446,0.719-0.907,1.104-1.321c0.049-0.053,0.118-0.079,0.191-0.065
			c0.07,0.011,0.131,0.058,0.16,0.123l0.574,1.265c0.3-0.302,0.591-0.546,0.879-0.742L6.859,7.202
			C6.814,7.104,6.85,6.988,6.942,6.931c0.501-0.309,1.01-0.481,1.556-0.526C8.591,6.402,8.673,6.447,8.71,6.53l0.703,1.548
			c0.029,0.063,0.025,0.137-0.011,0.196c-0.035,0.06-0.097,0.099-0.166,0.105C8.818,8.414,8.422,8.535,8.032,8.75L8.56,9.912
			c0.435-0.234,0.877-0.368,1.346-0.406c0.098-0.005,0.175,0.043,0.213,0.125l0.703,1.549c0.029,0.064,0.025,0.137-0.01,0.197
			c-0.036,0.06-0.098,0.099-0.167,0.104c-0.417,0.035-0.813,0.157-1.204,0.37l0.624,1.375c0.045,0.098,0.009,0.214-0.082,0.271
			c-0.378,0.233-0.762,0.562-1.171,1.001c-0.049,0.054-0.12,0.077-0.191,0.066c-0.071-0.012-0.131-0.059-0.16-0.123l-0.569-1.254
			c-0.269,0.305-0.529,0.631-0.784,0.952l0.649,1.433c0.034,0.073,0.022,0.158-0.027,0.221c-0.357,0.451-0.722,0.911-1.104,1.32
			c-0.048,0.054-0.118,0.077-0.191,0.067c-0.071-0.012-0.131-0.059-0.16-0.124l-0.573-1.264c-0.301,0.301-0.591,0.545-0.88,0.74
			l0.628,1.383c0.044,0.099,0.009,0.214-0.083,0.271c-0.503,0.31-1.012,0.483-1.557,0.528C3.802,18.714,3.796,18.714,3.791,18.714z
			 M3.403,17.126l0.519,1.145c0.364-0.048,0.712-0.165,1.057-0.354l-0.526-1.159C4.11,16.942,3.763,17.064,3.403,17.126z
			 M6.018,15.459l0.509,1.123c0.268-0.306,0.529-0.632,0.785-0.954l-0.504-1.11C6.552,14.837,6.29,15.158,6.018,15.459z
			 M4.116,14.984l0.523,1.151c0.283-0.197,0.57-0.449,0.871-0.762l-0.514-1.132C4.695,14.545,4.404,14.789,4.116,14.984z
			 M1.995,14.024l0.519,1.144c0.363-0.048,0.711-0.165,1.056-0.354l-0.525-1.157C2.703,13.84,2.355,13.963,1.995,14.024z
			 M5.313,13.906l0.511,1.127c0.268-0.307,0.529-0.632,0.783-0.953l-0.505-1.115C5.845,13.289,5.583,13.608,5.313,13.906z
			 M3.412,13.431l0.525,1.157c0.281-0.198,0.568-0.449,0.87-0.763L4.291,12.69C3.99,12.991,3.7,13.235,3.412,13.431z M8.204,12.846
			l0.514,1.132c0.301-0.302,0.591-0.547,0.88-0.743l-0.523-1.153C8.792,12.28,8.509,12.528,8.204,12.846z M6.402,12.59l0.504,1.111
			c0.255-0.32,0.517-0.641,0.79-0.941l-0.509-1.123C6.913,11.949,6.647,12.282,6.402,12.59z M4.61,12.357l0.51,1.123
			c0.267-0.304,0.529-0.631,0.784-0.953L5.4,11.416C5.152,11.727,4.885,12.054,4.61,12.357z M2.709,11.882l0.522,1.153
			c0.282-0.198,0.569-0.45,0.87-0.764l-0.513-1.13C3.289,11.441,2.998,11.687,2.709,11.882z M7.5,11.292l0.515,1.135
			c0.303-0.304,0.59-0.545,0.879-0.741L8.369,10.53C8.087,10.728,7.8,10.979,7.5,11.292z M5.698,11.037l0.506,1.115
			c0.248-0.311,0.515-0.638,0.789-0.94l-0.512-1.126C6.214,10.39,5.953,10.716,5.698,11.037z M8.736,10.303l0.526,1.159
			c0.342-0.184,0.688-0.306,1.049-0.369L9.792,9.948C9.428,9.997,9.08,10.114,8.736,10.303z M6.797,9.744l0.513,1.131
			c0.3-0.301,0.591-0.546,0.88-0.742L7.667,8.98C7.385,9.178,7.098,9.431,6.797,9.744z M4.995,9.489L5.499,10.6
			c0.262-0.328,0.522-0.646,0.79-0.941l-0.51-1.123C5.511,8.841,5.25,9.167,4.995,9.489z M7.329,7.201l0.526,1.158
			c0.342-0.184,0.688-0.306,1.049-0.368L8.385,6.847C8.021,6.896,7.672,7.013,7.329,7.201z"/>
	</g>
	<g>
		<path fill="#FFFFFF" d="M25.398,11.813c-0.49-0.001-0.945-0.117-1.395-0.356c-0.131-0.07-0.262-0.151-0.393-0.242
			c-0.26-0.181-0.519-0.404-0.793-0.683c-0.113-0.116-0.229-0.239-0.351-0.376c-0.256-0.288-0.505-0.595-0.735-0.886
			c-0.057-0.071-0.113-0.143-0.171-0.214c-0.057-0.072-0.113-0.144-0.171-0.215c-0.235-0.296-0.489-0.61-0.752-0.906
			c-0.127-0.144-0.249-0.274-0.369-0.396c-0.296-0.3-0.578-0.542-0.863-0.741c-0.146-0.102-0.295-0.195-0.443-0.274
			c-0.072-0.037-0.145-0.072-0.215-0.105c-0.383-0.173-0.77-0.272-1.176-0.3l-0.546-0.248l-6.344,13.983l0.608,0.275l3.096-6.824
			c0.457,0.015,0.881,0.13,1.304,0.354c0.13,0.069,0.263,0.15,0.394,0.242c0.259,0.18,0.518,0.403,0.792,0.68
			c0.114,0.117,0.229,0.241,0.351,0.378c0.256,0.287,0.504,0.595,0.736,0.886c0.057,0.072,0.113,0.145,0.172,0.216
			c0.055,0.072,0.111,0.143,0.169,0.214c0.235,0.296,0.489,0.61,0.752,0.906c0.127,0.144,0.249,0.274,0.37,0.396
			c0.295,0.301,0.577,0.541,0.861,0.74c0.146,0.103,0.297,0.195,0.445,0.274c0.07,0.037,0.143,0.073,0.214,0.105
			c0.45,0.204,0.925,0.308,1.415,0.309h0.16l3.265-7.194H25.398z M22.347,10.765c0.378,0.406,0.776,0.767,1.216,1.038
			c-0.234,0.516-0.468,1.032-0.701,1.549c-0.44-0.271-0.84-0.632-1.218-1.038C21.877,11.798,22.112,11.282,22.347,10.765z
			 M21.644,12.317c-0.233,0.517-0.469,1.032-0.703,1.549c-0.378-0.406-0.734-0.857-1.093-1.308c0.234-0.517,0.469-1.033,0.703-1.549
			C20.908,11.46,21.266,11.911,21.644,12.317z M20.16,8.15c0.379,0.406,0.736,0.857,1.094,1.308
			c-0.234,0.517-0.468,1.032-0.702,1.549c-0.357-0.451-0.716-0.902-1.093-1.308C19.693,9.182,19.927,8.667,20.16,8.15z
			 M19.458,9.702c-0.234,0.516-0.47,1.031-0.703,1.548c-0.378-0.406-0.776-0.766-1.216-1.037c0.234-0.516,0.469-1.032,0.703-1.549
			C18.682,8.935,19.079,9.296,19.458,9.702z M17.484,6.618c0.543,0.045,1.022,0.225,1.462,0.496
			c-0.235,0.516-0.469,1.032-0.703,1.549c-0.439-0.271-0.919-0.451-1.461-0.496C17.016,7.65,17.25,7.134,17.484,6.618z
			 M15.375,11.269c0.234-0.517,0.468-1.033,0.703-1.55c0.541,0.045,1.021,0.226,1.461,0.497c-0.235,0.517-0.469,1.033-0.703,1.549
			C16.396,11.494,15.916,11.313,15.375,11.269z M17.348,14.353c-0.378-0.406-0.775-0.767-1.216-1.038
			c0.234-0.517,0.468-1.033,0.702-1.549c0.439,0.271,0.838,0.632,1.217,1.038C17.816,13.32,17.582,13.836,17.348,14.353z
			 M18.051,12.801c0.234-0.516,0.469-1.033,0.703-1.549c0.378,0.406,0.736,0.857,1.093,1.308c-0.234,0.517-0.468,1.032-0.702,1.548
			C18.787,13.657,18.429,13.207,18.051,12.801z M19.533,16.967c-0.378-0.406-0.734-0.857-1.093-1.307
			c0.234-0.517,0.468-1.033,0.702-1.55c0.357,0.451,0.716,0.902,1.094,1.307C20.002,15.934,19.768,16.45,19.533,16.967z
			 M20.236,15.416c0.234-0.517,0.469-1.032,0.703-1.548c0.379,0.405,0.775,0.765,1.216,1.037c-0.234,0.517-0.468,1.033-0.702,1.55
			C21.014,16.183,20.615,15.822,20.236,15.416z M22.211,18.5c-0.543-0.045-1.023-0.226-1.463-0.496
			c0.234-0.517,0.469-1.032,0.703-1.549c0.439,0.271,0.92,0.452,1.461,0.495C22.678,17.467,22.444,17.983,22.211,18.5z
			 M23.618,15.397c-0.542-0.045-1.023-0.226-1.463-0.495c0.235-0.517,0.469-1.033,0.702-1.549c0.44,0.271,0.921,0.452,1.463,0.497
			C24.086,14.366,23.852,14.881,23.618,15.397z"/>
		<path fill="#FFFFFF" d="M11.291,20.344c-0.03,0-0.06-0.007-0.088-0.02l-0.609-0.276c-0.052-0.023-0.092-0.065-0.112-0.118
			c-0.02-0.054-0.018-0.112,0.005-0.164l6.345-13.983c0.023-0.051,0.065-0.092,0.119-0.111c0.053-0.021,0.111-0.018,0.164,0.005
			l0.512,0.232c0.418,0.033,0.813,0.137,1.209,0.315c0.077,0.037,0.151,0.073,0.225,0.11c0.158,0.084,0.313,0.182,0.469,0.289
			c0.299,0.209,0.59,0.459,0.893,0.766c0.123,0.125,0.246,0.258,0.377,0.404c0.266,0.299,0.521,0.616,0.76,0.915l0.341,0.429
			c0.229,0.289,0.475,0.593,0.728,0.877c0.12,0.134,0.232,0.255,0.344,0.368c0.266,0.269,0.514,0.484,0.764,0.658
			c0.123,0.085,0.247,0.162,0.371,0.229c0.415,0.221,0.839,0.329,1.293,0.331h0.388c0.073,0,0.141,0.037,0.18,0.098
			c0.04,0.061,0.046,0.138,0.015,0.205l-3.264,7.194c-0.034,0.075-0.111,0.126-0.195,0.126h-0.16
			c-0.521-0.002-1.026-0.112-1.504-0.328c-0.076-0.035-0.152-0.073-0.227-0.112c-0.154-0.082-0.311-0.181-0.466-0.287
			c-0.298-0.207-0.589-0.458-0.892-0.766c-0.123-0.124-0.248-0.258-0.378-0.404c-0.265-0.3-0.522-0.615-0.76-0.915l-0.341-0.43
			c-0.229-0.287-0.477-0.593-0.729-0.877c-0.119-0.136-0.232-0.256-0.344-0.372c-0.266-0.267-0.515-0.481-0.762-0.653
			c-0.123-0.087-0.247-0.164-0.369-0.228c-0.352-0.186-0.702-0.292-1.07-0.322l-3.036,6.69
			C11.45,20.297,11.372,20.344,11.291,20.344z M10.965,19.747l0.219,0.099l3.007-6.628c0.035-0.079,0.124-0.12,0.202-0.125
			c0.487,0.016,0.944,0.139,1.397,0.379c0.137,0.072,0.277,0.159,0.416,0.255c0.268,0.188,0.536,0.419,0.82,0.706
			c0.117,0.12,0.235,0.246,0.359,0.386c0.258,0.291,0.51,0.603,0.743,0.896l0.342,0.43c0.232,0.293,0.485,0.604,0.745,0.896
			c0.124,0.142,0.242,0.269,0.36,0.388c0.285,0.289,0.558,0.522,0.833,0.715c0.139,0.098,0.281,0.186,0.423,0.261
			c0.067,0.035,0.134,0.069,0.202,0.101c0.422,0.19,0.867,0.288,1.326,0.289h0.023l3.069-6.767h-0.056
			c-0.527-0.001-1.016-0.126-1.494-0.381c-0.139-0.075-0.277-0.16-0.415-0.255c-0.271-0.189-0.54-0.421-0.823-0.708
			c-0.115-0.118-0.234-0.244-0.359-0.385c-0.257-0.29-0.51-0.601-0.742-0.895l-0.342-0.43c-0.232-0.292-0.484-0.604-0.744-0.897
			c-0.125-0.141-0.243-0.268-0.361-0.388c-0.284-0.288-0.557-0.522-0.833-0.716c-0.14-0.097-0.281-0.185-0.423-0.261
			c-0.066-0.035-0.137-0.068-0.205-0.101c-0.357-0.161-0.717-0.253-1.098-0.279c-0.025-0.001-0.051-0.008-0.074-0.019l-0.352-0.16
			L10.965,19.747z M22.211,18.714c-0.006,0-0.012,0-0.018,0c-0.547-0.045-1.056-0.219-1.557-0.528
			c-0.092-0.057-0.127-0.172-0.083-0.271l0.628-1.383c-0.289-0.195-0.58-0.439-0.881-0.74l-0.572,1.264
			c-0.029,0.065-0.09,0.112-0.161,0.124c-0.068,0.01-0.144-0.014-0.19-0.067c-0.375-0.401-0.73-0.851-1.076-1.285
			c-0.05-0.062-0.088-0.183-0.055-0.256l0.649-1.433c-0.255-0.32-0.515-0.646-0.784-0.952l-0.569,1.254
			c-0.029,0.064-0.089,0.111-0.161,0.123c-0.07,0.009-0.143-0.013-0.189-0.066c-0.418-0.448-0.789-0.766-1.172-1.001
			c-0.092-0.057-0.127-0.173-0.082-0.271l0.623-1.375c-0.392-0.213-0.787-0.335-1.203-0.37c-0.07-0.006-0.133-0.044-0.168-0.104
			s-0.039-0.133-0.01-0.197l0.703-1.55c0.037-0.083,0.125-0.131,0.213-0.125c0.469,0.039,0.91,0.172,1.346,0.406l0.527-1.163
			c-0.392-0.214-0.787-0.336-1.204-0.371c-0.069-0.006-0.132-0.045-0.167-0.105c-0.035-0.06-0.039-0.133-0.01-0.197l0.701-1.547
			c0.038-0.083,0.123-0.128,0.213-0.125c0.546,0.045,1.055,0.218,1.557,0.526c0.092,0.057,0.127,0.173,0.082,0.271l-0.627,1.383
			c0.289,0.196,0.576,0.437,0.879,0.741l0.573-1.265c0.029-0.065,0.09-0.111,0.161-0.123c0.066-0.012,0.142,0.012,0.189,0.065
			c0.385,0.412,0.75,0.872,1.103,1.317c0.05,0.063,0.063,0.153,0.03,0.226l-0.65,1.433c0.255,0.32,0.515,0.645,0.783,0.951
			l0.57-1.253c0.029-0.065,0.089-0.112,0.16-0.123c0.064-0.012,0.141,0.013,0.19,0.065c0.417,0.447,0.79,0.765,1.172,1.001
			c0.092,0.056,0.127,0.172,0.083,0.271l-0.624,1.375c0.391,0.214,0.786,0.335,1.204,0.371c0.069,0.006,0.132,0.044,0.167,0.104
			s0.039,0.133,0.01,0.197l-0.702,1.548c-0.037,0.083-0.12,0.14-0.212,0.125c-0.47-0.04-0.912-0.172-1.347-0.406l-0.527,1.163
			c0.391,0.214,0.785,0.335,1.203,0.37c0.07,0.005,0.131,0.043,0.168,0.104c0.035,0.06,0.039,0.134,0.01,0.197l-0.702,1.55
			C22.37,18.665,22.294,18.714,22.211,18.714z M21.023,17.917c0.344,0.188,0.691,0.306,1.056,0.354l0.519-1.145
			c-0.36-0.062-0.707-0.184-1.049-0.368L21.023,17.917z M18.689,15.628c0.266,0.334,0.523,0.657,0.783,0.953l0.51-1.122
			c-0.273-0.303-0.535-0.622-0.789-0.941L18.689,15.628z M20.49,15.374c0.302,0.312,0.588,0.564,0.871,0.762l0.523-1.151
			c-0.291-0.195-0.577-0.438-0.881-0.742L20.49,15.374z M22.43,14.813c0.345,0.189,0.693,0.307,1.057,0.354l0.52-1.144
			c-0.361-0.062-0.708-0.184-1.05-0.368L22.43,14.813z M19.392,14.08c0.255,0.321,0.515,0.646,0.784,0.951l0.512-1.125
			c-0.271-0.299-0.534-0.621-0.789-0.941L19.392,14.08z M21.193,13.825c0.306,0.317,0.588,0.566,0.87,0.763l0.524-1.158
			c-0.288-0.195-0.579-0.44-0.879-0.74L21.193,13.825z M16.402,13.235c0.291,0.196,0.577,0.438,0.881,0.741l0.514-1.13
			c-0.306-0.317-0.588-0.566-0.871-0.764L16.402,13.235z M18.305,12.761c0.273,0.301,0.535,0.622,0.789,0.94l0.504-1.111
			c-0.254-0.321-0.516-0.647-0.784-0.953L18.305,12.761z M20.097,12.527c0.267,0.335,0.524,0.657,0.784,0.953l0.51-1.123
			c-0.273-0.302-0.535-0.623-0.79-0.942L20.097,12.527z M21.898,12.271c0.301,0.313,0.588,0.565,0.871,0.764l0.522-1.153
			c-0.291-0.196-0.577-0.438-0.881-0.742L21.898,12.271z M17.105,11.687c0.291,0.195,0.577,0.437,0.881,0.74l0.514-1.135
			c-0.301-0.312-0.587-0.564-0.869-0.762L17.105,11.687z M19.008,11.212c0.271,0.3,0.533,0.621,0.789,0.94l0.506-1.115
			c-0.26-0.327-0.52-0.651-0.783-0.952L19.008,11.212z M15.689,11.093c0.359,0.062,0.707,0.184,1.049,0.368l0.525-1.158
			c-0.344-0.189-0.691-0.306-1.055-0.355L15.689,11.093z M17.811,10.133c0.289,0.196,0.58,0.441,0.88,0.742l0.513-1.13
			c-0.305-0.318-0.588-0.566-0.869-0.764L17.811,10.133z M19.712,9.658c0.271,0.299,0.534,0.621,0.79,0.941l0.503-1.111
			c-0.256-0.323-0.517-0.649-0.784-0.953L19.712,9.658z M17.097,7.991c0.36,0.062,0.707,0.184,1.049,0.369l0.526-1.158
			c-0.344-0.188-0.691-0.305-1.057-0.354L17.097,7.991z"/>
	</g>
</g>
</svg>
